PathFileType	4	(X/Y/Z)	34_2_95_p1_0-412.trc
DataRate	CameraRate	NumFrames	NumMarkers	Units	OrigDataRate	OrigDataStartFrame	OrigNumFrames
60.0	60.0	7	27	m	60.0	51	413
Frame#	Time	RHip			RKnee			RAnkle			RBigToe			RSmallToe			RHeel			LHip			LKnee			LAnkle			LBigToe			LSmallToe			LHeel			Neck			Head			Nose			RShoulder			RElbow			RWrist			RThumb			RIndex			RPinky			LShoulder			LElbow			LWrist			LThumb			LIndex			LPinky			
		X1	Y1	Z1	X2	Y2	Z2	X3	Y3	Z3	X4	Y4	Z4	X5	Y5	Z5	X6	Y6	Z6	X7	Y7	Z7	X8	Y8	Z8	X9	Y9	Z9	X10	Y10	Z10	X11	Y11	Z11	X12	Y12	Z12	X13	Y13	Z13	X14	Y14	Z14	X15	Y15	Z15	X16	Y16	Z16	X17	Y17	Z17	X18	Y18	Z18	X19	Y19	Z19	X20	Y20	Z20	X21	Y21	Z21	X22	Y22	Z22	X23	Y23	Z23	X24	Y24	Z24	X25	Y25	Z25	X26	Y26	Z26	X27	Y27	Z27	
51	0.85	0.40774481171390065	0.4650865743067538	0.9565071510419182	0.4005882583160601	0.6579130543168414	1.3746567425559857	0.3688202340827193	0.8025738259839155	1.7536724980571252	0.34184893379352693	0.5664926820563395	1.779762161956956	0.40093952027946367	0.6144789910596855	1.7919553069096075	0.3499753418485772	0.877014398572967	1.7971543346627907	0.15852504221490515	0.529230029766372	0.9727547672296398	0.16659560010831315	0.6442396505662535	1.372375675419638	0.17462484774301823	0.7567276879858457	1.7427864997101346	0.1939734484150535	0.5419030833050906	1.7640857214533654	0.13929450181103578	0.5969279647308245	1.7769824880396548	0.19052702456358075	0.8156547314319944	1.797533755675195	0.2769541404095742	0.413351595416373	0.4430768174091165	0.28461307530801655	0.26089107064848915	0.20268620130529288	0.2766152352678795	0.23317844407729282	0.36376327709441636	0.43985680894354856	0.3988407235748596	0.5098720793933418	0.5123906426673878	0.4458467854942677	0.7237199300204641	0.40773565894884706	0.24637077703116736	0.8037962969140019	0.28430320053303854	0.18193896863119446	0.8194932875653567	0.27907007234221204	0.1605649116553044	0.8417562381443826	0.3204900615783651	0.24223066806850752	0.8707173582676495	0.1141992375666495	0.4186325738970704	0.5051744538882312	0.04095587628982876	0.4848917510291829	0.7464056050978384	0.15028995494756364	0.2705489026303545	0.8225747786569008	0.22413440139052884	0.21269336126930086	0.8364709364391328	0.21397515392086164	0.2040690286049157	0.8556616883961304	0.20243968016132868	0.22858405511316598	0.8771841678108329
52	0.8666666666666667	0.4081284295862619	0.4634970305864758	0.9525756886088398	0.39702809162768593	0.6427800915921197	1.3754524517084192	0.37344002696057066	0.7845388841533346	1.7472734993060253	0.345612546339676	0.5799372506548394	1.7844930815268516	0.400950535786965	0.6147604148860243	1.791891386009613	0.34990088533678176	0.8769584911727027	1.797350240825125	0.15839535582937497	0.5291608987735124	0.972888652016127	0.1658171268900153	0.6412170488309832	1.3671880041977567	0.1745210266959227	0.7567282742003298	1.742504915086732	0.19169846741076876	0.5544107072647438	1.768948499942575	0.139259178174489	0.5969117464841538	1.776878207234027	0.19044882199608065	0.815810411617542	1.7975334673347327	0.2769902554237036	0.4133823351983526	0.44322151531743165	0.2846553420783334	0.2604247148664586	0.202859020054024	0.27663788048182586	0.23297314040363762	0.36388077200260244	0.4401002672796951	0.397649444914448	0.5061227287449153	0.5158066772236769	0.43182809863469357	0.7229341276127247	0.40794770017261267	0.24558588542531334	0.7963997009082973	0.2926566728694867	0.1785179613200458	0.7800099471510484	0.28646959327879246	0.15726374178669503	0.8018966845816801	0.3197762476050677	0.2361812638433524	0.855646903952585	0.11442470765994	0.4207216075570104	0.5085555403576889	0.04137426315673	0.4873539949593404	0.7497980747525541	0.15261873410248677	0.27611022243170513	0.8039276461391021	0.2238688424448979	0.20686359184943653	0.7900301532034719	0.21112415184223457	0.1903849786519189	0.8360802748644856	0.2095107839287577	0.21490830851595522	0.8606504221457734
53	0.8833333333333333	0.40479617194105355	0.47733255060559154	0.9504489482089427	0.4009432087752059	0.6564319573811565	1.3785009724463986	0.36881415545789836	0.8027846216217194	1.7536706814826095	0.3455391815109893	0.5799320077396908	1.7845172382842898	0.40085660797674977	0.6149617271666605	1.7919496437584006	0.3500081092727863	0.8774953356889911	1.797255488376518	0.15523898979496417	0.5260458961613889	0.9730174634387307	0.1658036696164107	0.6410477377396382	1.3669894393493425	0.1756095627389578	0.7549317158200876	1.737399208013231	0.19168181649651542	0.5545387805626941	1.7691228459814294	0.13920070573084592	0.5970042312270167	1.7769058430237357	0.19051562887892912	0.8155010359681123	1.7972585058942705	0.2770321592451817	0.41337152132876337	0.443486147516013	0.28464286062413785	0.26047710235228233	0.2030188048696905	0.27669658302731526	0.23275075422856414	0.36400854164969415	0.4399970940746532	0.3982149504815986	0.5023657250295706	0.5119728553374782	0.4471819242184639	0.7200990720148939	0.40445215369813187	0.2561830388255724	0.790273574778526	0.2961362384530879	0.18883779447548876	0.7681261489118467	0.2884653595533369	0.15164695145555387	0.7771534483293625	0.32498733225816534	0.2192396666249304	0.8403479463924791	0.11439552608907533	0.42065182369608395	0.5085605520730201	0.04169062211861485	0.4889199609228822	0.7530463357004634	0.1563387464263943	0.2574052389255873	0.7846717292010054	0.23196294261242936	0.19215959285620304	0.7709260444009681	0.2268096400487661	0.1778635046543391	0.7918573764403942	0.21817906919427058	0.20297131813120753	0.8508154522187606
54	0.9	0.400866815969768	0.49232742977066796	0.9519866797915881	0.4008858411297909	0.6564618889607883	1.3785704686546583	0.3780413366458097	0.7861390433840915	1.7474921411478586	0.3456127889903735	0.5796730108858628	1.7846980574885856	0.40110876431076703	0.6145568948927075	1.7920346596570236	0.34874185126185714	0.8786807401417825	1.8025143333299423	0.15545480716298185	0.5228430352115131	0.9642777647521195	0.1666722867248823	0.6399728633426199	1.3622931259667475	0.17444971471615714	0.7564059764241032	1.7420572965536476	0.19663468651012408	0.5561963093447808	1.769400857925857	0.13924967050525405	0.5967741720767012	1.7767272462034174	0.1904695413714442	0.8155841933113267	1.7973216028389756	0.27703207948988895	0.4134812785876612	0.44350142698402245	0.2819418576763437	0.2497855544535278	0.20472425175105288	0.2766632133632863	0.2323721586105224	0.36413820410213543	0.44371324461543293	0.4101280515980032	0.5018050530974993	0.5046423663637378	0.4483284206493481	0.7205987020716695	0.4029835054215736	0.24586903952200823	0.7617886896074584	0.3007581338610129	0.19048519920212426	0.7519065213037857	0.2904304735432883	0.1596417423036223	0.7624798051161943	0.3243445097455101	0.21822464014019263	0.8196986726683821	0.11154733318147174	0.4087050867708216	0.505132951934443	0.03991786698775089	0.47323252583728054	0.7453660286920449	0.15167032415435677	0.2671139171582526	0.7739038154613058	0.2226839496305001	0.2030208383136042	0.7599425570051389	0.22097391712051218	0.1789741978559712	0.7705723891213668	0.2180884945017004	0.21254597234698652	0.8202382774412376
55	0.9166666666666666	0.39739800015903065	0.5057050006650238	0.949877632126038	0.40056400576856693	0.6576973927542126	1.374585603097745	0.3780313328760581	0.7860066066303016	1.747455352401429	0.3452700947522309	0.5812305142404731	1.781227338398177	0.40118560292816147	0.6147589610366372	1.7921147310791097	0.3486848803977131	0.8780721545449474	1.8022367548178984	0.15559759678653226	0.5227439796523695	0.9567008826604809	0.16634412731271156	0.6410336837719504	1.3584734016544429	0.1744030343698516	0.7564225301888547	1.7420803511026253	0.19069030677020743	0.5564764914572523	1.7732462006063303	0.1392096115020476	0.5969981892460413	1.7767833320057285	0.1904683671721765	0.8157551790962198	1.7974971199037533	0.27701893571613995	0.4135071159799404	0.44342963922745715	0.2818432479339048	0.2494819302213444	0.20473864042858803	0.27686459925593665	0.23188572595411347	0.36738527053304	0.44358119143065666	0.4079867697278032	0.5023506288764629	0.5032001623686646	0.43510886812322275	0.7204827032813175	0.3950865584864963	0.218221317270129	0.7378353128817382	0.2893721802018511	0.15270492457409618	0.7093070210108542	0.2958995288604154	0.12253163054349565	0.7230224368147657	0.3140608434823245	0.17827104950954964	0.7733461897028379	0.11888854135699994	0.40827397415004746	0.5049514416840416	0.04220768083191748	0.4849065998182831	0.7460139432491177	0.15856866016102852	0.2646808446125701	0.7624599184718737	0.22284503215198664	0.19917889841519268	0.7200716400960482	0.21480269600190902	0.17581443098564115	0.7334944841785452	0.21938139493035824	0.2019447254208461	0.7795144765050537
56	0.9333333333333333	0.4012711348852112	0.4907266940885018	0.9482665710343251	0.4005448915716182	0.6578531473963974	1.3745558193504204	0.3780410156286166	0.7860981650424445	1.7474948826036867	0.34531505135652896	0.5812490299888734	1.7812385676249494	0.4013857545034619	0.6148393428041614	1.7921694490671993	0.34941583390335645	0.8782359237439586	1.793361639383828	0.15554991956872327	0.5237063796778064	0.952879836271875	0.16632478769358258	0.6409562211087044	1.3581298974242593	0.17551154548394993	0.7548677276738835	1.7370677636740617	0.19565258734971183	0.5580426155492308	1.7734535531265954	0.13921305835861908	0.5970985536130556	1.776852228850815	0.1904320926670118	0.8153915358669936	1.7971114900883405	0.27704267894328327	0.4135249895665503	0.4433845295917114	0.2818015367997618	0.24935906641639005	0.20469332269621102	0.27697291681442326	0.2320288319017434	0.36744083395145016	0.4399147763980479	0.3960379117093855	0.5027835321546138	0.503248763473488	0.4344915524010827	0.7274532971758462	0.40105452360382443	0.21662012788024296	0.722304448391043	0.3060163173207752	0.16426479367667263	0.6886517699200343	0.3004068420967382	0.13463839407477216	0.6912833905751337	0.31165680467890866	0.17271329578392844	0.7529501437363472	0.11869686768869682	0.4062256867973787	0.5014170686661351	0.04146751056642306	0.47841511873297105	0.7366879157573787	0.1559261643782494	0.25036686007228137	0.7242910947637714	0.21860389128553773	0.18141696761761686	0.6921592763249403	0.20861701458812046	0.16702428663132524	0.7017137116950968	0.21860245940576495	0.20157790147135687	0.7670178107485423
57	0.95	0.3975169952668584	0.4778821591569816	0.9464018146079812	0.40055480243130687	0.6578612498347003	1.3743909921475936	0.37346998004226883	0.8042381595632873	1.7539242193187254	0.3454033577134923	0.5813237755966126	1.7814005975298495	0.40166824526964057	0.6152441633224577	1.792353160375295	0.34952843094100894	0.8787507397178597	1.7934821249006967	0.16064534712302983	0.5224943124012973	0.95309847709998	0.16556529929388467	0.6378951810062807	1.3527917520505082	0.17555877733235503	0.754845010716152	1.7370132787313306	0.19567160479516088	0.557966730090432	1.773476988274193	0.13926565076800315	0.5967991143598397	1.7767285788259732	0.1900353585899571	0.8168422437396287	1.7930117218118553	0.27707433469472253	0.41323955758128583	0.44344029552840586	0.28183486744322733	0.24908639599298463	0.2047255894311691	0.2770831243914678	0.23234416663443053	0.36754104718423225	0.44004336046087267	0.39477459121409697	0.499054231461574	0.5103376939672318	0.40697480513593964	0.7400097624907221	0.3996862404683426	0.23936134625152478	0.7051753282529389	0.30796047599848725	0.1804137861017815	0.6554782623513267	0.3025817834223252	0.13484086986650287	0.6586329784310149	0.31250987189042506	0.19167397092746694	0.7138271193008138	0.12546958898584723	0.4210332852313468	0.500631731451388	0.046311977738888975	0.45350032711581084	0.7338251600260735	0.16014359324824465	0.24510587175985885	0.7062836112730839	0.21892641703178203	0.18795464419706223	0.6637234812084329	0.2055412727860129	0.1727639214309956	0.667035313204071	0.22293298068320225	0.1861538303976745	0.713360000146243
